<svg id="Group_141" data-name="Group 141" xmlns="http://www.w3.org/2000/svg" width="134.531" height="40.177" viewBox="0 0 134.531 40.177">
  <path id="Path_34" data-name="Path 34" d="M64.957,25.6H59.4L56.9,37.468h5.88A7.048,7.048,0,0,0,69.966,31.7C70.619,28.1,69.639,25.6,64.957,25.6Zm.109,5.88a5.435,5.435,0,0,1-.98,2.5,1.719,1.719,0,0,1-1.633.762h-.436l1.415-6.424h.436a1.28,1.28,0,0,1,1.307.762A4.6,4.6,0,0,1,65.066,31.48Z" transform="translate(5.053 2.273)" fill="#ffc602"/>
  <path id="Path_35" data-name="Path 35" d="M77.777,25.6l-1.633,7.622c-.218.98-.762,1.307-1.2,1.307s-.871-.327-.653-1.307L75.926,25.6H71.244l-1.633,7.839c-.653,2.831,1.089,4.246,4.682,4.246s5.88-1.415,6.533-4.246L82.459,25.6H77.777Z" transform="translate(6.17 2.273)" fill="#ffc602"/>
  <path id="Path_36" data-name="Path 36" d="M88.185,33.131c-.327,1.307-.871,1.633-1.415,1.633-1.2,0-.98-1.307-.653-3.158.436-1.851.762-3.158,1.96-3.158.544,0,.98.218.762,1.633h4.246C93.847,26.6,91.56,25.4,88.621,25.4a7.153,7.153,0,0,0-7.4,6.206c-.762,3.7.544,6.315,4.682,6.315,2.94,0,5.88-1.415,6.533-4.682H88.185Z" transform="translate(7.194 2.256)" fill="#ffc602"/>
  <path id="Path_37" data-name="Path 37" d="M96.915,25.6,90.6,37.468h4.464l.871-1.96H99.31v1.96H104.1L102.795,25.6Zm2.4,7.077h-1.96l1.96-4.464h0Z" transform="translate(8.046 2.273)" fill="#ffc602"/>
  <path id="Path_38" data-name="Path 38" d="M114.615,25.6H104.162l-.762,3.158h2.94l-1.851,8.71h4.682l1.851-8.71h2.94Z" transform="translate(9.183 2.273)" fill="#ffc602"/>
  <path id="Path_39" data-name="Path 39" d="M112.2,37.468h4.682l2.5-11.868H114.7Z" transform="translate(9.964 2.273)" fill="#ffc602"/>
  <path id="Path_40" data-name="Path 40" d="M105.561,25.578l.871-4.573h-5.662l1.2-5.771h4.573l.871-4.029h-4.573l1.307-6.533h5.988l.98-4.464L105.126.1h-4.9L95,25.578h10.561Z" transform="translate(8.437 0.009)" fill="#ffc602"/>
  <path id="Path_41" data-name="Path 41" d="M88.9,25.587h5.335l.98-4.573H89.771L94.126,0H89.335L84,25.587Z" transform="translate(7.46)" fill="#ffc602"/>
  <path id="Path_42" data-name="Path 42" d="M17.938,20.352,21.1,5.109a1.151,1.151,0,0,1,.762-.653h4.464L27.192.1H20.006a3.368,3.368,0,0,0-3.158,2.613h0L12.6,22.856v.218a2.022,2.022,0,0,0,2.178,2.4h7.186l.98-4.573H18.482C18.047,21.005,17.829,20.678,17.938,20.352Z" transform="translate(1.116 0.009)" fill="#ffc602"/>
  <path id="Path_43" data-name="Path 43" d="M8.71,5.226a.7.7,0,0,1,.653-.653h5.009L15.461,0H7.3A3.453,3.453,0,0,0,4.137,2.722a2.227,2.227,0,0,0,0,1.2l2.94,16.441v.109a.934.934,0,0,1-.762.653H.98L0,25.587H8.275a3.368,3.368,0,0,0,3.158-2.613,2.706,2.706,0,0,0,.109-.871L8.71,5.226Z" fill="#ffc602"/>
  <path id="Path_44" data-name="Path 44" d="M122.9.2h-10.67L107,25.569h4.9l1.524-7.513h1.089l.871,7.513h4.9l-.871-7.513a3.5,3.5,0,0,0,2.94-2.5l2.613-12.739V2.7A2.024,2.024,0,0,0,122.9.2ZM118,12.939h0a.8.8,0,0,1-.762.653H114.3l1.851-8.928h2.94a.48.48,0,0,1,.436.653h0Z" transform="translate(9.502 0.018)" fill="#ffc602"/>
  <path id="Path_45" data-name="Path 45" d="M79.979,25.569a3.472,3.472,0,0,0,3.158-2.613l1.742-8.275a1.634,1.634,0,0,0-1.742-1.851,2.788,2.788,0,0,0,2.5-1.96l1.633-7.948V2.813A2.071,2.071,0,0,0,85.205.2H74.535L69.2,25.569H79.979ZM78.673,4.664h2.94a.48.48,0,0,1,.436.653h0l-1.2,5.88H77.257ZM76.5,15.226h3.593L79,20.343h0a.934.934,0,0,1-.762.653H75.3Z" transform="translate(6.145 0.018)" fill="#ffc602"/>
  <path id="Path_46" data-name="Path 46" d="M39.243,15.561,41.856,2.822V2.713A2.071,2.071,0,0,0,39.788.1H29.117L24,25.469h4.791l1.524-7.513H31.4l.871,7.513h4.791l-.871-7.513A3.266,3.266,0,0,0,39.243,15.561ZM35,12.839a.934.934,0,0,1-.762.653h-2.94l1.851-8.928h2.94a.48.48,0,0,1,.436.653h0L35,12.839Z" transform="translate(2.131 0.009)" fill="#ffc602"/>
  <path id="Path_47" data-name="Path 47" d="M48.741,0H47.326L37.2,25.478h5.335l1.089-3.049h3.7l-.218,3.049h5.117L52.661,0h-3.92ZM47.435,18.4h-2.5L48.2,9.146Z" transform="translate(3.304)" fill="#ffc602"/>
  <path id="Path_48" data-name="Path 48" d="M60.375,23.736,63.1,19.272l2.831-5.226-2.4,11.541h4.9L73.658,0H68.432L63.1,11.106,62.661,0H57.435L52.1,25.478l4.9.109,2.286-11.324Z" transform="translate(4.627)" fill="#ffc602"/>
</svg>